<mxfile host="app.diagrams.net" agent="Mozilla/5.0 (X11; Linux x86_64; rv:143.0) Gecko/20100101 Firefox/143.0" version="28.2.7">
  <diagram name="Page 1" id="Page-1">
    <mxGraphModel dx="777" dy="437" grid="1" gridSize="10" guides="1" tooltips="1" connect="1" arrows="1" fold="1" page="1" pageScale="1" pageWidth="827" pageHeight="1169" math="1" shadow="0">
      <root>
        <mxCell id="0" />
        <mxCell id="1" parent="0" />
        <mxCell id="gmeczGZ3l1ycVdg2-Da3-49" value="&lt;div align=&quot;right&quot;&gt;V&lt;sub&gt;S&lt;/sub&gt;&lt;/div&gt;" style="text;html=1;whiteSpace=wrap;strokeColor=none;fillColor=none;align=right;verticalAlign=middle;rounded=0;fontFamily=Helvetica;fontSize=11;fontColor=default;labelBackgroundColor=default;convertToSvg=1;" parent="1" vertex="1">
          <mxGeometry x="60" y="245.18" width="23" height="30" as="geometry" />
        </mxCell>
        <mxCell id="gmeczGZ3l1ycVdg2-Da3-51" value="" style="pointerEvents=1;verticalLabelPosition=bottom;shadow=0;dashed=0;align=center;html=1;verticalAlign=top;shape=mxgraph.electrical.signal_sources.source;aspect=fixed;points=[[0.5,0,0],[1,0.5,0],[0.5,1,0],[0,0.5,0]];elSignalType=ac;convertToSvg=1;" parent="1" vertex="1">
          <mxGeometry x="90" y="230.18" width="60" height="60" as="geometry" />
        </mxCell>
        <mxCell id="gmeczGZ3l1ycVdg2-Da3-52" value="R&lt;sub&gt;2&lt;/sub&gt;" style="pointerEvents=1;verticalLabelPosition=bottom;shadow=0;dashed=0;align=center;html=1;verticalAlign=middle;shape=mxgraph.electrical.resistors.resistor_2;convertToSvg=1;rotation=90;horizontal=0;" parent="1" vertex="1">
          <mxGeometry x="331" y="260" width="100" height="20" as="geometry" />
        </mxCell>
        <mxCell id="gmeczGZ3l1ycVdg2-Da3-53" value="" style="edgeStyle=orthogonalEdgeStyle;rounded=0;orthogonalLoop=1;jettySize=auto;html=1;endArrow=none;endFill=0;" parent="1" source="gmeczGZ3l1ycVdg2-Da3-54" target="gmeczGZ3l1ycVdg2-Da3-57" edge="1">
          <mxGeometry relative="1" as="geometry">
            <Array as="points">
              <mxPoint x="480" y="200" />
            </Array>
          </mxGeometry>
        </mxCell>
        <mxCell id="gmeczGZ3l1ycVdg2-Da3-54" value="C&lt;sub&gt;2&lt;/sub&gt;" style="pointerEvents=1;verticalLabelPosition=bottom;shadow=0;dashed=0;align=left;html=1;verticalAlign=middle;shape=mxgraph.electrical.capacitors.capacitor_1;rotation=90;horizontal=0;convertToSvg=1;" parent="1" vertex="1">
          <mxGeometry x="430" y="240" width="100" height="60" as="geometry" />
        </mxCell>
        <mxCell id="gmeczGZ3l1ycVdg2-Da3-55" value="" style="edgeStyle=orthogonalEdgeStyle;shape=connector;rounded=0;orthogonalLoop=1;jettySize=auto;html=1;strokeColor=default;align=center;verticalAlign=middle;fontFamily=Helvetica;fontSize=11;fontColor=default;labelBackgroundColor=default;endArrow=none;endFill=0;" parent="1" target="gmeczGZ3l1ycVdg2-Da3-52" edge="1">
          <mxGeometry relative="1" as="geometry">
            <mxPoint x="381" y="340" as="sourcePoint" />
          </mxGeometry>
        </mxCell>
        <mxCell id="gmeczGZ3l1ycVdg2-Da3-56" value="" style="edgeStyle=orthogonalEdgeStyle;shape=connector;rounded=0;orthogonalLoop=1;jettySize=auto;html=1;strokeColor=default;align=center;verticalAlign=middle;fontFamily=Helvetica;fontSize=11;fontColor=default;labelBackgroundColor=default;endArrow=none;endFill=0;" parent="1" source="gmeczGZ3l1ycVdg2-Da3-57" target="gmeczGZ3l1ycVdg2-Da3-52" edge="1">
          <mxGeometry relative="1" as="geometry" />
        </mxCell>
        <mxCell id="gmeczGZ3l1ycVdg2-Da3-57" value="" style="shape=waypoint;sketch=0;size=6;pointerEvents=1;points=[];fillColor=default;resizable=0;rotatable=0;perimeter=centerPerimeter;snapToPoint=1;align=left;shadow=0;dashed=0;horizontal=0;" parent="1" vertex="1">
          <mxGeometry x="371" y="190" width="20" height="20" as="geometry" />
        </mxCell>
        <mxCell id="gmeczGZ3l1ycVdg2-Da3-58" value="" style="pointerEvents=1;verticalLabelPosition=bottom;shadow=0;dashed=0;align=center;html=1;verticalAlign=top;shape=mxgraph.electrical.signal_sources.protective_earth;fontFamily=Helvetica;fontSize=11;fontColor=default;labelBackgroundColor=default;" parent="1" vertex="1">
          <mxGeometry x="368.5" y="340" width="25" height="20" as="geometry" />
        </mxCell>
        <mxCell id="gmeczGZ3l1ycVdg2-Da3-59" value="" style="pointerEvents=1;verticalLabelPosition=bottom;shadow=0;dashed=0;align=center;html=1;verticalAlign=top;shape=mxgraph.electrical.signal_sources.protective_earth;fontFamily=Helvetica;fontSize=11;fontColor=default;labelBackgroundColor=default;" parent="1" vertex="1">
          <mxGeometry x="467.5" y="340" width="25" height="20" as="geometry" />
        </mxCell>
        <mxCell id="gmeczGZ3l1ycVdg2-Da3-60" value="" style="pointerEvents=1;verticalLabelPosition=bottom;shadow=0;dashed=0;align=center;html=1;verticalAlign=top;shape=mxgraph.electrical.signal_sources.protective_earth;fontFamily=Helvetica;fontSize=11;fontColor=default;labelBackgroundColor=default;" parent="1" vertex="1">
          <mxGeometry x="107.5" y="340" width="25" height="20" as="geometry" />
        </mxCell>
        <mxCell id="gmeczGZ3l1ycVdg2-Da3-61" style="edgeStyle=orthogonalEdgeStyle;shape=connector;rounded=0;orthogonalLoop=1;jettySize=auto;html=1;exitX=0.5;exitY=1;exitDx=0;exitDy=0;exitPerimeter=0;entryX=0.5;entryY=0;entryDx=0;entryDy=0;entryPerimeter=0;strokeColor=default;align=center;verticalAlign=middle;fontFamily=Helvetica;fontSize=11;fontColor=default;labelBackgroundColor=default;endArrow=none;endFill=0;" parent="1" source="gmeczGZ3l1ycVdg2-Da3-51" target="gmeczGZ3l1ycVdg2-Da3-60" edge="1">
          <mxGeometry relative="1" as="geometry" />
        </mxCell>
        <mxCell id="gmeczGZ3l1ycVdg2-Da3-62" style="edgeStyle=orthogonalEdgeStyle;shape=connector;rounded=0;orthogonalLoop=1;jettySize=auto;html=1;exitX=1;exitY=0.5;exitDx=0;exitDy=0;exitPerimeter=0;entryX=0.5;entryY=0;entryDx=0;entryDy=0;entryPerimeter=0;strokeColor=default;align=center;verticalAlign=middle;fontFamily=Helvetica;fontSize=11;fontColor=default;labelBackgroundColor=default;endArrow=none;endFill=0;" parent="1" source="gmeczGZ3l1ycVdg2-Da3-54" target="gmeczGZ3l1ycVdg2-Da3-59" edge="1">
          <mxGeometry relative="1" as="geometry" />
        </mxCell>
        <mxCell id="gmeczGZ3l1ycVdg2-Da3-63" value="" style="edgeStyle=none;orthogonalLoop=1;jettySize=auto;html=1;rounded=0;" parent="1" edge="1">
          <mxGeometry width="80" relative="1" as="geometry">
            <mxPoint x="130" y="210" as="sourcePoint" />
            <mxPoint x="160" y="210" as="targetPoint" />
            <Array as="points" />
          </mxGeometry>
        </mxCell>
        <mxCell id="gmeczGZ3l1ycVdg2-Da3-64" value="" style="edgeStyle=none;orthogonalLoop=1;jettySize=auto;html=1;rounded=0;" parent="1" edge="1">
          <mxGeometry width="80" relative="1" as="geometry">
            <mxPoint x="390" y="210" as="sourcePoint" />
            <mxPoint x="390" y="230" as="targetPoint" />
            <Array as="points" />
          </mxGeometry>
        </mxCell>
        <mxCell id="gmeczGZ3l1ycVdg2-Da3-65" value="" style="edgeStyle=none;orthogonalLoop=1;jettySize=auto;html=1;rounded=0;" parent="1" edge="1">
          <mxGeometry width="80" relative="1" as="geometry">
            <mxPoint x="490" y="210" as="sourcePoint" />
            <mxPoint x="490" y="230" as="targetPoint" />
            <Array as="points" />
          </mxGeometry>
        </mxCell>
        <mxCell id="gmeczGZ3l1ycVdg2-Da3-66" value="I&lt;sub&gt;tot&lt;/sub&gt;" style="text;html=1;whiteSpace=wrap;strokeColor=none;fillColor=none;align=center;verticalAlign=middle;rounded=0;" parent="1" vertex="1">
          <mxGeometry x="125" y="210" width="35" height="20" as="geometry" />
        </mxCell>
        <mxCell id="gmeczGZ3l1ycVdg2-Da3-67" value="I&lt;sub&gt;R2&lt;/sub&gt;" style="text;html=1;whiteSpace=wrap;strokeColor=none;fillColor=none;align=center;verticalAlign=middle;rounded=0;" parent="1" vertex="1">
          <mxGeometry x="388" y="201" width="24" height="30" as="geometry" />
        </mxCell>
        <mxCell id="gmeczGZ3l1ycVdg2-Da3-68" value="I&lt;sub&gt;C2&lt;/sub&gt;" style="text;html=1;whiteSpace=wrap;strokeColor=none;fillColor=none;align=center;verticalAlign=middle;rounded=0;" parent="1" vertex="1">
          <mxGeometry x="488" y="201" width="24" height="30" as="geometry" />
        </mxCell>
        <mxCell id="9qJQ5FDV2cemzqh7UUS6-1" value="R&lt;sub&gt;1&lt;/sub&gt;" style="pointerEvents=1;verticalLabelPosition=bottom;shadow=0;dashed=0;align=center;html=1;verticalAlign=middle;shape=mxgraph.electrical.resistors.resistor_2;convertToSvg=1;rotation=0;horizontal=1;" vertex="1" parent="1">
          <mxGeometry x="140" y="190" width="100" height="20" as="geometry" />
        </mxCell>
        <mxCell id="9qJQ5FDV2cemzqh7UUS6-3" style="edgeStyle=orthogonalEdgeStyle;rounded=0;orthogonalLoop=1;jettySize=auto;html=1;exitX=0;exitY=0.5;exitDx=0;exitDy=0;exitPerimeter=0;entryX=0.5;entryY=0;entryDx=0;entryDy=0;entryPerimeter=0;endArrow=none;endFill=0;" edge="1" parent="1" source="9qJQ5FDV2cemzqh7UUS6-1" target="gmeczGZ3l1ycVdg2-Da3-51">
          <mxGeometry relative="1" as="geometry" />
        </mxCell>
        <mxCell id="9qJQ5FDV2cemzqh7UUS6-8" value="" style="edgeStyle=orthogonalEdgeStyle;shape=connector;rounded=0;orthogonalLoop=1;jettySize=auto;html=1;strokeColor=default;align=center;verticalAlign=middle;fontFamily=Helvetica;fontSize=11;fontColor=default;labelBackgroundColor=default;endArrow=none;endFill=0;" edge="1" parent="1" source="9qJQ5FDV2cemzqh7UUS6-7" target="9qJQ5FDV2cemzqh7UUS6-1">
          <mxGeometry relative="1" as="geometry" />
        </mxCell>
        <mxCell id="9qJQ5FDV2cemzqh7UUS6-9" style="edgeStyle=orthogonalEdgeStyle;shape=connector;rounded=0;orthogonalLoop=1;jettySize=auto;html=1;exitX=1;exitY=0.5;exitDx=0;exitDy=0;exitPerimeter=0;strokeColor=default;align=center;verticalAlign=middle;fontFamily=Helvetica;fontSize=11;fontColor=default;labelBackgroundColor=default;endArrow=none;endFill=0;" edge="1" parent="1" source="9qJQ5FDV2cemzqh7UUS6-7" target="gmeczGZ3l1ycVdg2-Da3-57">
          <mxGeometry relative="1" as="geometry" />
        </mxCell>
        <mxCell id="9qJQ5FDV2cemzqh7UUS6-7" value="C&lt;sub&gt;1&lt;/sub&gt;" style="pointerEvents=1;verticalLabelPosition=bottom;shadow=0;dashed=0;align=center;html=1;verticalAlign=top;shape=mxgraph.electrical.capacitors.capacitor_1;rotation=0;horizontal=1;convertToSvg=1;" vertex="1" parent="1">
          <mxGeometry x="260" y="170" width="100" height="60" as="geometry" />
        </mxCell>
      </root>
    </mxGraphModel>
  </diagram>
</mxfile>
